<?xml version="1.0" standalone="no"?>
<!DOCTYPE svg PUBLIC "-//W3C//DTD SVG 20010904//EN"
 "http://www.w3.org/TR/2001/REC-SVG-20010904/DTD/svg10.dtd">
<svg version="1.0" xmlns="http://www.w3.org/2000/svg"
 width="570.000000pt" height="502.000000pt" viewBox="0 0 570.000000 502.000000"
 preserveAspectRatio="xMidYMid meet">

<g transform="translate(0.000000,502.000000) scale(0.100000,-0.100000)"
fill="#000000" stroke="none">
<path d="M2845 4914 c-16 -9 -47 -21 -67 -29 -32 -10 -38 -10 -38 1 0 20 -19
27 -36 13 -13 -10 -13 -14 2 -30 20 -22 12 -36 -26 -44 -17 -4 -35 -15 -40
-25 -20 -38 -41 -50 -87 -50 -40 0 -45 -2 -40 -20 7 -28 -7 -25 -29 7 -52 72
-90 85 -100 33 -4 -16 -10 -28 -14 -25 -4 2 -15 -1 -24 -8 -14 -10 -15 -18 -7
-40 6 -16 18 -27 30 -27 23 0 42 -22 32 -38 -5 -8 -20 -9 -51 -4 -48 8 -51 16
-34 71 7 22 5 23 -17 16 -13 -4 -39 -7 -56 -7 -31 1 -33 -2 -33 -32 0 -17 5
-37 11 -43 8 -8 7 -17 -3 -32 -11 -18 -11 -23 1 -30 10 -7 6 -14 -18 -32 -17
-12 -31 -30 -31 -39 0 -32 -19 -38 -65 -21 -42 15 -45 15 -60 -4 -8 -11 -26
-55 -40 -99 -14 -43 -34 -90 -45 -104 -11 -13 -20 -36 -20 -51 0 -14 -7 -46
-15 -69 -9 -24 -18 -69 -20 -99 -3 -31 -10 -74 -16 -97 -13 -48 -6 -151 21
-316 10 -63 21 -157 24 -209 4 -60 12 -103 21 -118 13 -19 15 -40 10 -98 -4
-50 -3 -75 4 -75 10 0 12 28 16 209 0 24 -5 83 -13 130 -7 47 -18 167 -23 266
-9 155 -8 192 7 270 20 111 47 181 83 220 15 17 35 42 44 57 10 15 30 31 45
34 15 4 64 26 109 50 104 55 143 58 191 12 30 -29 39 -33 90 -33 57 0 57 0 57
-30 0 -20 6 -31 18 -33 10 -2 17 3 17 11 0 7 16 28 35 46 19 17 35 36 35 42 0
6 15 25 33 42 17 18 37 41 43 52 11 18 14 19 35 6 20 -12 25 -11 52 20 23 27
26 35 13 37 -9 2 -16 10 -16 18 0 8 -9 14 -19 14 -11 0 -22 4 -26 9 -3 5 -18
-2 -33 -16 -22 -20 -34 -24 -62 -19 -38 6 -54 0 -63 -24 -4 -11 -7 -9 -13 8
-3 12 -19 29 -35 38 -34 17 -37 30 -9 37 11 3 20 12 20 21 0 19 5 20 30 6 14
-7 19 -5 23 10 4 17 13 19 76 18 42 0 76 4 85 11 10 9 20 9 33 3 10 -6 25 -7
33 -2 17 10 43 -6 53 -32 3 -10 12 -15 21 -12 8 3 17 1 21 -5 15 -25 32 -10
31 27 -1 44 27 54 32 11 3 -24 5 -26 27 -15 14 6 25 14 25 19 0 4 7 7 15 7 9
0 15 -9 15 -25 0 -20 -8 -28 -41 -41 -37 -16 -40 -19 -33 -48 8 -40 11 -43 57
-51 34 -7 39 -5 44 14 7 26 16 26 51 3 76 -52 109 -71 135 -77 15 -4 27 -13
27 -20 0 -18 113 -38 169 -30 39 5 54 2 94 -20 42 -24 97 -85 97 -108 0 -5 11
-32 24 -60 41 -91 50 -130 47 -203 -2 -62 1 -78 27 -130 46 -90 60 -129 67
-181 8 -56 10 -67 25 -148 7 -33 18 -67 26 -76 8 -8 14 -28 14 -43 0 -15 6
-40 14 -54 18 -35 36 -113 36 -155 0 -37 23 -77 34 -59 4 6 8 43 9 81 1 38 5
67 10 64 4 -2 10 3 13 11 3 9 10 14 15 11 13 -8 3 -76 -17 -118 -22 -46 -11
-90 23 -95 30 -4 39 33 23 98 -9 39 -9 54 0 65 10 13 19 55 57 265 3 19 10 40
15 47 5 7 7 16 4 22 -4 5 -11 106 -16 223 -6 117 -17 258 -25 313 -25 167 -68
314 -98 332 -7 4 -44 47 -81 95 -37 49 -73 91 -80 95 -7 5 -15 16 -19 26 -4
10 -20 25 -37 35 -16 9 -30 24 -30 32 0 10 -24 27 -60 43 -48 21 -70 25 -105
20 -25 -3 -45 -10 -45 -14 0 -5 -7 -9 -15 -9 -8 0 -15 4 -15 9 0 13 -71 1 -90
-15 -8 -7 -28 -15 -45 -18 -16 -3 -24 -3 -17 0 15 7 16 44 1 44 -17 0 -1 18
33 34 44 22 85 21 93 -3 10 -32 43 -36 71 -10 31 29 23 38 -26 32 -22 -3 -46
-1 -53 5 -8 7 -33 8 -72 3 -41 -6 -75 -4 -113 6 -39 10 -58 11 -65 4 -6 -6
-19 -11 -28 -11 -9 0 -24 -12 -34 -26 -13 -21 -19 -23 -31 -13 -13 10 -17 10
-25 -2 -7 -11 -13 -10 -29 11 -17 22 -20 22 -20 6 0 -14 -6 -17 -25 -14 -24 5
-29 -1 -26 -30 2 -9 -7 -12 -26 -10 -19 2 -29 10 -34 28 -4 16 -7 19 -8 8 -1
-10 -5 -18 -11 -18 -15 0 -12 7 11 40 12 16 19 35 16 42 -8 21 -124 22 -162 2z
m113 -76 c-3 -7 -15 -13 -28 -13 -13 0 -25 6 -27 13 -3 8 6 12 27 12 21 0 30
-4 28 -12z m308 -23 c8 -8 21 -12 30 -8 15 5 64 -32 64 -49 0 -4 -15 -8 -34
-8 -19 0 -38 -4 -41 -10 -10 -15 -25 -12 -25 6 0 9 -10 24 -22 33 -13 11 -19
24 -15 34 8 21 24 22 43 2z m342 -51 c23 -7 32 -26 10 -23 -7 1 -21 -1 -31 -6
-22 -9 -29 -3 -21 19 7 18 9 18 42 10z m-1178 -79 c0 -8 -4 -15 -10 -15 -5 0
-10 7 -10 15 0 8 5 15 10 15 6 0 10 -7 10 -15z m834 -13 c6 -10 -51 -62 -59
-54 -10 10 -5 50 8 55 20 8 45 8 51 -1z"/>
<path d="M2523 4854 c-7 -3 -13 -14 -13 -25 0 -16 6 -19 44 -17 42 3 44 4 32
23 -13 20 -41 28 -63 19z"/>
<path d="M2932 4568 c-16 -16 -15 -35 1 -40 22 -9 37 3 37 28 0 26 -18 32 -38
12z"/>
<path d="M3196 4191 c-21 -23 -14 -57 12 -63 34 -9 82 3 82 21 0 22 -11 36
-37 50 -30 15 -37 14 -57 -8z"/>
<path d="M3365 4141 c-3 -5 -1 -12 5 -16 5 -3 10 -11 10 -18 0 -7 -3 -8 -10
-1 -11 11 -118 -12 -155 -33 -23 -14 -17 -17 55 -30 l44 -9 -3 -86 c-2 -82 -1
-87 20 -93 15 -5 25 -2 31 9 5 9 16 16 23 16 8 0 15 4 15 8 0 5 9 18 21 31 17
18 18 25 9 36 -7 8 -18 15 -24 15 -6 0 -19 8 -27 18 -13 15 -13 21 -4 28 7 5
15 33 18 62 5 44 4 52 -11 52 -15 0 -15 2 -2 10 9 6 10 10 3 10 -6 0 -14 -4
-18 -9z"/>
<path d="M3160 3890 c0 -5 14 -10 30 -10 17 0 30 5 30 10 0 6 -13 10 -30 10
-16 0 -30 -4 -30 -10z"/>
<path d="M3405 3870 l-30 -8 33 -1 c17 0 32 4 32 9 0 6 -1 9 -2 9 -2 -1 -16
-5 -33 -9z"/>
<path d="M2252 3788 c-17 -17 -15 -28 5 -28 9 0 13 3 10 7 -4 3 -2 12 4 20 14
16 -3 17 -19 1z"/>
<path d="M3327 3666 c-10 -8 -48 -17 -85 -21 -37 -4 -85 -15 -107 -25 -22 -9
-62 -26 -90 -36 -27 -10 -61 -26 -74 -36 -17 -13 -28 -15 -41 -8 -24 13 -49 3
-82 -32 -15 -15 -31 -28 -37 -28 -15 0 -29 -32 -25 -57 2 -13 13 -32 24 -43
11 -11 20 -24 20 -29 0 -5 7 -17 17 -26 14 -14 14 -18 2 -26 -8 -5 -21 -8 -29
-7 -8 0 -23 -2 -33 -7 -10 -4 -23 -2 -32 5 -8 7 -21 10 -29 7 -23 -9 -55 21
-77 74 -12 27 -36 61 -53 77 l-31 27 -150 -1 -151 -1 -86 -42 c-90 -43 -105
-60 -94 -107 7 -25 8 -25 70 -19 35 4 88 4 118 0 l53 -8 -64 -17 c-51 -14 -72
-27 -107 -64 -24 -25 -44 -49 -44 -53 0 -5 18 -24 41 -43 22 -19 47 -48 55
-63 21 -39 127 -89 189 -89 47 0 113 13 198 39 40 13 50 21 66 56 10 23 21 53
24 67 12 51 73 90 93 59 5 -8 8 -8 14 0 4 7 22 13 41 14 33 2 34 0 46 -46 13
-54 28 -77 50 -77 9 0 43 -9 77 -19 88 -28 217 -45 286 -37 83 10 153 49 240
136 48 48 88 79 110 85 49 14 54 54 11 85 -17 11 -35 19 -40 16 -5 -3 -28 8
-52 24 -24 16 -55 30 -68 30 -13 0 -36 11 -52 25 -16 13 -36 22 -44 19 -8 -4
-23 -3 -32 2 -10 4 -21 8 -25 8 -3 1 -10 4 -14 9 -4 4 38 7 93 7 78 0 116 -5
173 -24 l72 -23 8 21 c15 40 -26 84 -126 137 -64 33 -85 49 -66 49 16 0 16 30
0 31 -68 3 -105 7 -118 12 -8 4 -23 0 -33 -7z m-29 -232 c-9 -9 -21 -13 -27
-9 -16 10 -3 25 22 25 20 0 20 -1 5 -16z m179 -220 c-3 -3 -12 -4 -19 -1 -8 3
-5 6 6 6 11 1 17 -2 13 -5z m-50 -20 c-3 -3 -12 -4 -19 -1 -8 3 -5 6 6 6 11 1
17 -2 13 -5z"/>
<path d="M4207 3493 c-5 -8 -4 -30 3 -53 1 -3 6 6 11 19 9 24 -3 53 -14 34z"/>
<path d="M4246 3394 c-17 -16 -11 -75 10 -109 6 -11 18 -60 25 -108 10 -69 15
-85 24 -75 20 21 35 78 41 153 5 62 4 74 -17 104 -29 42 -63 56 -83 35z"/>
<path d="M4170 3275 c0 -8 5 -15 10 -15 6 0 10 7 10 15 0 8 -4 15 -10 15 -5 0
-10 -7 -10 -15z"/>
<path d="M4165 3113 l7 -68 -41 -51 c-40 -50 -50 -85 -32 -112 14 -23 61 -3
79 34 9 19 23 34 33 34 23 0 29 20 29 96 0 55 -4 71 -26 100 -43 55 -56 46
-49 -33z"/>
<path d="M1891 3141 c-18 -18 -19 -23 -6 -70 13 -51 49 -111 66 -111 23 0 29
52 13 114 -25 90 -38 102 -73 67z"/>
<path d="M3038 2924 c-9 -9 10 -46 33 -62 10 -7 19 -22 21 -35 5 -34 44 -35
52 -1 6 21 1 33 -21 58 -15 17 -28 32 -28 33 0 6 -52 13 -57 7z"/>
<path d="M4246 2891 c-4 -5 -2 -12 3 -15 5 -4 12 -2 15 3 4 5 2 12 -3 15 -5 4
-12 2 -15 -3z"/>
<path d="M4000 2865 c-9 -21 -9 -41 -2 -68 5 -21 7 -35 4 -32 -3 2 -12 -4 -20
-16 -11 -15 -12 -34 -6 -82 4 -34 9 -65 10 -69 1 -5 3 -23 4 -40 2 -27 4 -22
11 22 5 30 20 78 34 105 20 41 22 52 11 60 -8 7 -14 30 -14 62 0 28 -4 59 -10
69 -10 17 -12 16 -22 -11z"/>
<path d="M2517 2826 c-4 -10 -5 -21 -2 -24 9 -9 17 6 13 25 -3 17 -4 17 -11
-1z"/>
<path d="M3211 2784 c0 -11 3 -14 6 -6 3 7 2 16 -1 19 -3 4 -6 -2 -5 -13z"/>
<path d="M2462 2738 c-18 -18 -15 -40 6 -36 9 2 18 13 20 26 4 24 -7 29 -26
10z"/>
<path d="M3260 2746 c0 -2 7 -9 15 -16 9 -7 15 -8 15 -2 0 5 -7 12 -15 16 -8
3 -15 4 -15 2z"/>
<path d="M3025 2720 c-75 -9 -113 -25 -146 -63 -22 -25 -35 -31 -83 -35 -49
-4 -62 -1 -96 22 -46 30 -72 33 -91 9 -8 -9 -50 -33 -94 -54 -45 -21 -92 -47
-105 -59 -23 -20 -25 -20 -37 -3 -11 14 -17 15 -31 7 -9 -6 -18 -18 -20 -27
-5 -22 57 -77 86 -77 28 0 32 -11 35 -91 2 -52 6 -66 22 -76 33 -20 48 -16 43
12 -7 34 7 31 43 -7 16 -18 37 -41 47 -51 34 -37 95 -55 221 -66 93 -9 127 -9
137 0 8 7 44 13 80 14 64 2 68 4 135 59 39 31 75 68 81 81 6 14 17 25 24 25
15 0 12 -26 -4 -42 -16 -16 -15 -41 1 -35 6 2 12 10 12 18 0 14 19 27 41 28
22 2 24 -69 4 -108 -10 -20 -21 -44 -24 -53 -3 -10 -13 -18 -23 -18 -25 -1
-55 -28 -87 -78 -15 -25 -31 -39 -39 -36 -8 3 -20 -2 -27 -11 -9 -11 -9 -15
-1 -15 7 0 9 -4 6 -10 -3 -5 -13 -10 -22 -10 -9 0 -22 -8 -29 -17 -12 -17 -14
-16 -41 10 -16 15 -34 27 -41 27 -12 0 -15 15 -16 75 l-1 30 -84 -2 c-51 -2
-87 -7 -92 -14 -4 -7 2 -26 12 -43 19 -31 26 -76 12 -76 -5 0 -14 4 -22 9 -15
10 -64 -26 -55 -41 3 -4 -9 -9 -25 -9 -35 -2 -37 -2 -70 -13 -28 -10 -40 1
-43 36 -1 14 -7 24 -13 22 -5 -2 -17 0 -25 6 -12 7 -12 14 -2 44 16 43 12 51
-33 66 -19 6 -35 18 -35 25 0 24 -47 71 -59 60 -16 -16 -33 -122 -26 -155 7
-31 -14 -50 -54 -50 -26 0 -28 -35 -5 -61 20 -22 11 -80 -9 -60 -24 24 -26 9
-3 -26 14 -21 28 -50 31 -65 4 -15 13 -32 21 -39 8 -6 14 -15 14 -20 0 -5 11
-32 25 -61 14 -28 25 -56 25 -61 0 -5 7 -23 15 -41 11 -23 13 -43 7 -72 l-8
-39 -44 78 c-25 43 -52 91 -61 107 -9 17 -21 36 -27 43 -6 7 -18 39 -26 70
-24 91 -31 96 -46 34 -8 -36 -11 -91 -8 -163 5 -92 12 -128 46 -229 47 -143
90 -222 160 -292 29 -29 52 -56 52 -62 0 -6 33 -33 73 -60 39 -28 109 -80 155
-116 45 -36 86 -65 91 -65 20 0 183 -175 226 -244 27 -42 54 -76 61 -76 11 0
49 27 90 65 6 5 74 71 150 145 82 79 170 154 212 180 39 25 120 77 180 116 59
38 115 73 125 77 9 3 17 15 17 25 0 20 28 131 75 297 53 191 86 342 86 400 0
33 0 83 0 110 0 67 -23 172 -32 148 -11 -28 -10 -141 1 -148 21 -13 9 -50 -22
-70 -19 -12 -35 -32 -40 -52 -5 -17 -26 -51 -48 -75 -97 -106 -134 -132 -145
-98 -3 11 -17 20 -32 22 -34 4 -39 22 -14 47 24 24 27 44 7 60 -17 14 -15 189
2 200 22 13 46 97 31 106 -5 4 -12 -7 -15 -24 -5 -24 -12 -31 -30 -31 -25 0
-33 27 -14 46 13 13 3 44 -14 44 -7 0 -22 -9 -33 -20 -22 -20 -22 -20 -28 0
-4 11 -9 20 -13 20 -4 0 -6 20 -4 45 4 51 -8 62 -51 46 -16 -6 -29 -21 -33
-37 -6 -23 -10 -25 -40 -20 -18 4 -35 2 -39 -3 -3 -6 -12 -8 -20 -5 -11 4 -7
12 15 31 38 32 38 45 -4 76 -26 20 -35 36 -39 68 -3 23 -15 55 -26 70 -12 16
-21 38 -21 50 0 26 -20 100 -31 114 -5 6 -11 30 -15 52 -3 23 -13 44 -20 47
-8 3 -14 16 -14 29 0 26 -53 83 -68 73 -5 -3 -21 3 -35 14 -14 11 -32 20 -41
20 -9 0 -19 7 -22 15 -7 16 -7 16 -99 5z m-402 -201 c25 0 21 -18 -8 -31 -14
-6 -25 -17 -25 -25 0 -9 -17 -13 -62 -13 l-63 1 45 40 c35 31 50 39 70 34 14
-3 33 -6 43 -6z m602 1 c3 -5 1 -10 -4 -10 -6 0 -11 5 -11 10 0 6 2 10 4 10 3
0 8 -4 11 -10z m-325 -21 c0 -11 -33 -19 -90 -22 -34 -2 -45 2 -45 13 0 11 14
16 50 20 56 6 85 2 85 -11z m260 -59 c0 -4 12 -5 26 -2 23 4 25 2 22 -24 -2
-21 -9 -30 -26 -32 -13 -2 -28 -14 -34 -28 -8 -16 -19 -24 -37 -24 -15 0 -51
-10 -81 -21 -92 -35 -214 -52 -290 -40 -54 9 -67 8 -81 -5 -25 -22 -36 -11
-49 49 -13 56 -10 93 6 90 64 -12 99 -11 122 5 28 18 139 27 277 22 22 -1 58
5 80 12 39 14 65 13 65 -2z m400 -444 c0 -19 -17 -29 -37 -22 -12 5 -13 9 -3
21 16 19 40 19 40 1z m48 -28 c16 -16 15 -39 -2 -32 -8 3 -17 1 -21 -5 -10
-18 -35 -13 -35 7 0 20 18 42 35 42 6 0 16 -5 23 -12z m46 -54 c13 -5 14 -9 5
-20 -16 -19 -26 -17 -32 6 -5 21 1 24 27 14z m-888 -30 c-3 -9 -6 -22 -6 -30
0 -9 -11 -14 -29 -14 -28 0 -29 1 -18 30 8 22 18 30 35 30 18 0 23 -4 18 -16z
m114 1 c0 -8 -4 -15 -10 -15 -5 0 -10 7 -10 15 0 8 5 15 10 15 6 0 10 -7 10
-15z m730 -25 c0 -11 -4 -20 -9 -20 -14 0 -23 18 -16 30 10 17 25 11 25 -10z
m-710 -42 c0 -5 -9 -8 -20 -8 -19 0 -28 28 -13 43 6 7 32 -21 33 -35z m-503
-20 c-3 -8 -6 -5 -6 6 -1 11 2 17 5 13 3 -3 4 -12 1 -19z m427 -14 c20 -8 21
-28 1 -44 -12 -10 -15 -10 -15 3 0 8 -8 18 -17 21 -15 6 -15 8 -3 16 18 12 15
11 34 4z m739 -54 c-7 -28 -13 -25 -13 6 0 14 4 23 9 20 5 -3 7 -15 4 -26z
m-530 -1 c44 -12 45 -35 1 -31 -43 4 -54 10 -54 27 0 18 3 18 53 4z m-553 -25
c0 -9 -5 -14 -12 -12 -18 6 -21 28 -4 28 9 0 16 -7 16 -16z m424 7 c10 -15 -4
-39 -25 -44 -21 -6 -24 5 -9 34 11 20 25 25 34 10z m576 -91 c0 -5 -5 -10 -11
-10 -5 0 -7 5 -4 10 3 6 8 10 11 10 2 0 4 -4 4 -10z m-870 -31 c0 -5 -7 -9
-15 -9 -9 0 -15 9 -15 21 0 18 2 19 15 9 8 -7 15 -16 15 -21z m90 -59 c0 -6
-6 -10 -14 -10 -16 0 -38 24 -30 33 9 8 44 -11 44 -23z m1067 -8 c4 -31 -14
-28 -20 3 -2 15 0 24 6 22 6 -2 12 -13 14 -25z m-721 8 c14 -14 5 -100 -11
-100 -22 0 -33 23 -30 65 2 22 3 41 4 43 3 6 28 1 37 -8z m-279 -6 c-3 -3 -12
-4 -19 -1 -8 3 -5 6 6 6 11 1 17 -2 13 -5z m352 -20 c6 -15 9 -29 6 -32 -9
-10 -48 35 -41 47 11 18 22 13 35 -15z m-242 -9 c3 -9 3 -18 1 -21 -9 -9 -38
8 -38 22 0 19 29 18 37 -1z m63 -15 c0 -11 -4 -20 -10 -20 -5 0 -10 9 -10 20
0 11 5 20 10 20 6 0 10 -9 10 -20z m-400 -111 c0 -6 -4 -7 -10 -4 -5 3 -10 11
-10 16 0 6 5 7 10 4 6 -3 10 -11 10 -16z m1015 -109 c7 -23 -10 -50 -31 -50
-8 0 -14 -11 -14 -26 0 -39 -18 -64 -46 -64 -14 0 -38 -7 -53 -15 -31 -15 -94
-31 -156 -39 -47 -6 -58 -16 -17 -16 17 0 33 -4 37 -9 10 -17 -27 -29 -105
-34 -41 -3 -83 -9 -92 -12 -11 -5 -18 -3 -18 5 0 7 -7 10 -16 6 -10 -4 -18 1
-21 14 -3 10 -14 22 -25 26 -11 3 -17 8 -14 11 3 3 0 15 -6 27 -7 11 -11 24
-10 28 1 4 -5 5 -13 2 -11 -5 -15 1 -15 18 0 33 18 50 41 37 14 -7 23 -2 45
27 25 33 30 35 66 29 22 -4 50 -18 63 -31 22 -22 30 -24 82 -17 46 5 64 12 85
35 20 21 35 28 65 28 27 0 42 6 51 20 18 29 108 29 117 0z m-318 -32 c-3 -8
-6 -5 -6 6 -1 11 2 17 5 13 3 -3 4 -12 1 -19z"/>
<path d="M3430 1196 c0 -9 7 -16 16 -16 17 0 14 22 -4 28 -7 2 -12 -3 -12 -12z"/>
<path d="M3355 2650 c3 -5 8 -10 11 -10 2 0 4 5 4 10 0 6 -5 10 -11 10 -5 0
-7 -4 -4 -10z"/>
<path d="M3801 2531 c-12 -8 -13 -14 -3 -36 17 -36 47 -30 47 10 0 31 -19 42
-44 26z"/>
<path d="M2460 2245 c0 -8 2 -15 4 -15 2 0 6 7 10 15 3 8 1 15 -4 15 -6 0 -10
-7 -10 -15z"/>
<path d="M3690 2216 c0 -11 43 -76 50 -76 17 0 19 32 4 56 -14 20 -54 35 -54
20z"/>
<path d="M3650 2112 c0 -32 4 -42 16 -42 12 0 14 7 9 33 -11 51 -25 56 -25 9z"/>
<path d="M2310 1975 c0 -9 6 -12 15 -9 8 4 15 10 15 15 0 5 -7 9 -15 9 -8 0
-15 -7 -15 -15z"/>
<path d="M2296 1931 c-4 -7 -5 -15 -2 -18 9 -9 19 4 14 18 -4 11 -6 11 -12 0z"/>
<path d="M4292 1634 c-2 -94 -35 -251 -67 -314 -23 -47 -65 -182 -65 -212 0
-46 22 -21 71 80 69 144 94 240 94 363 0 71 -4 111 -13 121 -7 9 -10 22 -6 31
3 8 1 17 -4 21 -5 3 -9 -36 -10 -90z"/>
<path d="M1965 1490 c-14 -28 -35 -92 -46 -143 -10 -50 -31 -123 -45 -163 -23
-67 -35 -176 -20 -192 3 -3 1 -11 -5 -18 -13 -16 -5 -44 13 -44 9 0 23 50 42
153 16 83 38 188 48 232 24 103 46 219 42 223 -1 2 -14 -19 -29 -48z"/>
<path d="M3984 1012 c-19 -12 -34 -49 -34 -83 0 -25 3 -29 13 -20 22 18 51 91
41 101 -5 5 -14 6 -20 2z"/>
<path d="M2360 941 c0 -10 30 -24 37 -17 3 3 2 9 -2 15 -8 13 -35 15 -35 2z"/>
<path d="M4587 263 c-4 -3 -7 -15 -7 -25 0 -15 3 -17 20 -8 11 6 17 16 14 25
-7 16 -17 19 -27 8z"/>
<path d="M4491 126 c-12 -13 -36 -26 -52 -30 -22 -4 -34 -15 -45 -41 -8 -19
-19 -35 -24 -35 -6 0 -10 -4 -10 -10 0 -5 7 -10 15 -10 8 0 15 5 15 12 0 9 3
9 12 0 7 -7 41 -12 82 -12 68 0 69 0 52 19 -10 11 -28 21 -39 23 -31 4 -33 35
-3 65 14 14 26 30 26 34 0 13 -5 11 -29 -15z"/>
</g>
</svg>
