<?xml version="1.0" standalone="no"?>
<!DOCTYPE svg PUBLIC "-//W3C//DTD SVG 20010904//EN"
 "http://www.w3.org/TR/2001/REC-SVG-20010904/DTD/svg10.dtd">
<svg version="1.0" xmlns="http://www.w3.org/2000/svg"
 width="500.000000pt" height="500.000000pt" viewBox="0 0 500.000000 500.000000"
 preserveAspectRatio="xMidYMid meet">

<g transform="translate(0.000000,500.000000) scale(0.100000,-0.100000)"
fill="#000000" stroke="none">
<path d="M0 2500 l0 -2500 2500 0 2500 0 0 2500 0 2500 -2500 0 -2500 0 0
-2500z m3390 1610 c0 -7 -303 -10 -890 -10 -587 0 -890 3 -890 10 0 7 303 10
890 10 587 0 890 -3 890 -10z m-1405 -100 c6 -1 0 -5 -13 -11 -17 -6 -30 -5
-45 6 -24 17 -27 16 58 5z m148 -7 c-7 -2 -14 -17 -14 -31 l-2 -27 -4 25 c-3
14 -10 28 -17 32 -6 4 3 7 19 7 17 0 24 -3 18 -6z m188 -3 c10 -6 19 -21 18
-33 0 -21 -1 -21 -11 3 l-11 25 -6 -23 -6 -23 -19 23 c-14 16 -21 19 -24 9 -2
-7 1 -17 8 -21 8 -5 -3 -8 -26 -8 -21 0 -45 5 -51 10 -9 7 -13 7 -13 -1 0 -6
-9 -11 -20 -11 -13 0 -20 7 -20 19 0 25 17 36 34 21 11 -8 15 -8 19 2 3 8 9 4
15 -12 10 -22 11 -23 11 -4 1 17 7 20 36 19 19 0 35 3 35 7 0 11 7 10 31 -2z
m76 -2 c7 18 23 15 24 -5 1 -17 2 -17 6 0 2 9 8 17 13 17 5 0 7 -8 4 -17 -3
-10 -8 -24 -10 -32 -4 -11 -8 -10 -19 5 -13 17 -14 17 -15 2 0 -17 -20 -27
-20 -10 0 4 -3 18 -6 32 -5 20 -4 22 6 10 9 -11 13 -12 17 -2z m203 -17 c0
-28 -2 -29 -46 -28 -48 0 -67 18 -45 40 9 9 16 9 31 -1 11 -7 20 -8 20 -3 0 5
8 12 18 14 9 3 18 5 20 6 1 0 2 -12 2 -28z m60 19 c-13 -9 -13 -10 0 -10 13 0
13 -1 0 -10 -13 -9 -13 -11 0 -20 12 -8 11 -10 -7 -10 -19 0 -23 6 -23 30 0
24 4 30 23 30 18 0 19 -2 7 -10z m37 -37 c-3 -10 -5 -2 -5 17 0 19 2 27 5 18
2 -10 2 -26 0 -35z m-209 9 c3 -17 -2 -22 -17 -22 -14 0 -21 6 -21 18 0 38 33
41 38 4z m260 0 c3 -17 -2 -22 -17 -22 -14 0 -21 6 -21 18 0 38 33 41 38 4z
m50 -4 c-3 -37 -29 -46 -34 -13 -5 29 3 45 21 45 12 0 15 -8 13 -32z m-1101
-6 l-27 -28 25 -24 c13 -12 22 -27 19 -32 -7 -11 -64 40 -64 56 0 16 42 56 59
56 10 0 7 -8 -12 -28z m124 -9 c-8 -15 -10 -15 -11 -2 0 17 10 32 18 25 2 -3
-1 -13 -7 -23z m139 17 c0 -3 10 -6 23 -6 12 1 23 -3 25 -9 1 -6 -23 -11 -55
-12 -37 -1 -51 1 -38 6 19 8 19 8 0 19 -18 10 -16 12 13 10 17 -1 32 -5 32 -8z
m-93 -26 c-3 -3 -12 -4 -19 -1 -8 3 -5 6 6 6 11 1 17 -2 13 -5z m1383 -4 c0
-5 -4 -10 -10 -10 -5 0 -10 5 -10 10 0 6 5 10 10 10 6 0 10 -4 10 -10z m50 0
c0 -5 -7 -10 -15 -10 -8 0 -15 5 -15 10 0 6 7 10 15 10 8 0 15 -4 15 -10z m40
0 c0 -5 -4 -10 -10 -10 -5 0 -10 5 -10 10 0 6 5 10 10 10 6 0 10 -4 10 -10z
m-1210 -55 c0 -14 -6 -25 -13 -25 -21 0 -27 11 -16 31 14 27 29 23 29 -6z m74
13 c5 -10 7 -10 12 0 3 6 12 12 19 12 18 0 24 -21 13 -43 -9 -17 -11 -17 -28
-2 -16 15 -18 15 -24 -1 -6 -16 -8 -16 -22 -3 -16 17 -9 49 11 49 7 0 16 -6
19 -12z m116 -1 c0 -14 -20 -37 -32 -37 -10 0 -11 34 -1 43 11 12 33 8 33 -6z
m43 -37 c-3 -3 -8 1 -11 9 -4 11 -6 11 -13 0 -7 -11 -9 -9 -9 7 0 32 13 37 26
12 7 -13 10 -25 7 -28z m27 23 c-1 -24 -2 -26 -11 -10 -5 9 -7 22 -4 27 10 17
15 11 15 -17z m1537 -127 c6 -5 5 -2507 -1 -2513 -9 -10 -544 -8 -574 1 -13 4
-27 17 -31 29 -8 21 -9 21 -37 -10 -28 -32 -30 -33 -110 -33 -57 0 -84 -4 -87
-12 -4 -10 -7 -10 -18 0 -17 16 -46 16 -53 0 -5 -11 -7 -11 -12 0 -7 14 -50
16 -59 2 -3 -5 -17 -10 -30 -10 -13 0 -27 5 -30 10 -3 6 -20 10 -36 10 -18 0
-28 -4 -24 -10 3 -6 -1 -10 -10 -10 -9 0 -13 5 -10 10 4 6 -8 10 -29 10 -19 0
-37 -6 -40 -12 -5 -11 -7 -11 -12 0 -7 15 -54 16 -54 0 0 -9 -3 -9 -12 0 -15
15 -51 15 -66 0 -9 -9 -12 -9 -12 0 0 16 -27 15 -34 0 -5 -10 -7 -10 -12 0 -7
16 -31 16 -38 0 -5 -10 -7 -10 -12 0 -7 16 -34 16 -35 0 0 -10 -2 -10 -6 0 -6
15 -43 16 -43 0 0 -9 -3 -9 -12 0 -16 16 -48 15 -49 0 0 -10 -2 -10 -6 0 -6
14 -49 16 -58 2 -8 -13 -62 -13 -70 0 -9 14 -82 12 -89 -2 -5 -10 -7 -10 -12
0 -7 16 -41 16 -47 0 -4 -10 -7 -10 -18 0 -17 16 -46 16 -53 0 -5 -11 -7 -11
-12 0 -3 6 -17 12 -30 12 -14 0 -22 -4 -19 -10 3 -5 -1 -10 -10 -10 -9 0 -13
5 -10 10 7 12 -120 15 -549 15 l-289 0 0 130 c0 72 0 640 1 1262 l2 1133 778
2 c697 3 2074 -1 2079 -6z m-1917 -2596 c0 -5 -7 -10 -15 -10 -11 0 -15 -12
-15 -45 0 -25 -4 -45 -10 -45 -5 0 -10 20 -10 45 0 33 -4 45 -15 45 -8 0 -15
5 -15 10 0 6 18 10 40 10 22 0 40 -4 40 -10z m90 0 c0 -5 -12 -10 -26 -10 -32
0 -27 -22 7 -31 23 -7 23 -7 -4 -8 -36 -1 -34 -32 3 -42 23 -6 22 -7 -7 -8
l-33 -1 0 55 c0 54 0 55 30 55 17 0 30 -4 30 -10z m110 -1 c0 -6 -6 -9 -12 -6
-22 8 -48 -13 -48 -37 0 -26 14 -41 45 -49 16 -4 16 -5 -5 -6 -32 -1 -45 8
-54 37 -10 32 17 72 49 72 14 0 25 -5 25 -11z m60 -20 c0 -14 7 -19 25 -19 20
0 25 5 26 28 l1 27 8 -25 c12 -36 12 -90 0 -90 -5 0 -10 11 -10 25 0 20 -5 25
-25 25 -20 0 -25 -5 -25 -25 0 -14 -4 -25 -10 -25 -5 0 -10 25 -10 56 0 34 4
53 10 49 6 -3 10 -15 10 -26z m143 1 c23 -39 35 -38 40 3 4 29 5 30 12 10 9
-28 15 -28 48 -3 30 24 60 26 76 6 17 -20 10 -77 -10 -89 -23 -15 -66 -1 -72
24 -7 26 -31 20 -35 -9 -6 -39 -34 -24 -62 33 l-14 30 -7 -45 -6 -45 -1 58
c-1 31 2 57 6 57 4 0 16 -13 25 -30z m247 -25 c0 -37 3 -44 23 -48 16 -3 13
-5 -10 -6 l-33 -1 0 56 c0 34 4 53 10 49 6 -3 10 -26 10 -50z m154 39 c19 -18
21 -65 4 -82 -19 -19 -66 -15 -78 7 -22 42 -1 91 40 91 10 0 26 -7 34 -16z
m136 6 c0 -6 -6 -10 -12 -9 -34 4 -48 -3 -54 -26 -7 -29 10 -55 37 -55 21 0
26 26 7 33 -7 2 -10 8 -6 12 14 15 39 -5 36 -27 -4 -27 -50 -37 -74 -17 -20
17 -18 76 4 88 22 14 62 14 62 1z m92 -12 c11 17 18 21 18 11 0 -8 -7 -24 -15
-35 -8 -10 -15 -30 -15 -44 -1 -21 -3 -18 -16 15 -25 67 -28 84 -8 53 l18 -27
18 27z m-944 -144 c43 -30 16 -94 -40 -94 -27 0 -28 1 -28 55 0 51 2 55 23 55
12 0 33 -7 45 -16z m117 6 c-3 -5 -15 -10 -26 -10 -31 0 -23 -30 9 -31 l27 -2
-27 -4 c-19 -3 -28 -10 -28 -23 0 -13 9 -20 28 -23 25 -4 25 -4 -5 -6 l-33 -1
0 55 c0 55 0 55 31 55 17 0 28 -4 24 -10z m58 -32 c10 -28 17 -38 21 -28 3 8
10 28 16 44 6 16 13 26 16 23 9 -8 -30 -107 -40 -104 -13 4 -47 107 -36 107 4
0 15 -19 23 -42z m164 25 c2 -6 -4 -10 -14 -9 -10 2 -13 1 -6 -1 6 -2 14 -11
17 -19 4 -10 -3 -14 -24 -14 -23 0 -30 -5 -30 -19 0 -12 8 -21 23 -24 16 -3
13 -5 -10 -6 l-33 -1 0 56 0 55 37 -3 c20 -2 38 -8 40 -15z m45 -42 c-2 -34 0
-40 20 -44 17 -3 15 -5 -9 -6 -28 -1 -33 2 -33 22 0 13 -5 28 -11 34 -8 8 -7
17 2 32 19 29 33 10 31 -38z m152 43 c19 -18 21 -65 4 -82 -7 -7 -24 -12 -40
-12 -32 0 -48 24 -48 72 0 30 3 33 34 35 21 2 41 -3 50 -13z m116 1 c16 -19 6
-45 -20 -52 -11 -3 -20 -14 -20 -24 0 -11 -4 -19 -10 -19 -5 0 -10 25 -10 55
0 51 2 55 24 55 13 0 29 -7 36 -15z m110 5 c0 -5 -12 -10 -26 -10 -32 0 -27
-22 7 -31 23 -7 23 -7 -4 -8 -36 -1 -34 -32 3 -42 23 -6 22 -7 -7 -8 l-33 -1
0 55 c0 54 0 55 30 55 17 0 30 -4 30 -10z m99 -4 c10 -11 10 -20 1 -36 -9 -16
-9 -25 -1 -33 13 -13 14 -27 2 -27 -5 0 -13 9 -16 20 -9 27 -33 25 -38 -2 -2
-13 -5 3 -6 35 -1 54 0 57 23 57 13 0 29 -6 35 -14z m-419 -26 c0 -11 -6 -20
-14 -20 -8 0 -17 -6 -19 -12 -3 -7 -6 2 -6 20 -1 26 3 32 19 32 13 0 20 -7 20
-20z"/>
<path d="M2156 3981 c-4 -7 -5 -15 -2 -18 9 -9 19 4 14 18 -4 11 -6 11 -12 0z"/>
<path d="M2515 3981 c-3 -5 -1 -12 5 -16 5 -3 10 1 10 9 0 18 -6 21 -15 7z"/>
<path d="M2570 3976 c0 -9 5 -16 10 -16 6 0 10 4 10 9 0 6 -4 13 -10 16 -5 3
-10 -1 -10 -9z"/>
<path d="M2466 3981 c-4 -7 -5 -15 -2 -18 9 -9 19 4 14 18 -4 11 -6 11 -12 0z"/>
<path d="M2720 3975 c0 -8 5 -15 10 -15 6 0 10 7 10 15 0 8 -4 15 -10 15 -5 0
-10 -7 -10 -15z"/>
<path d="M2776 3981 c-4 -7 -5 -15 -2 -18 9 -9 19 4 14 18 -4 11 -6 11 -12 0z"/>
<path d="M2176 3892 c-2 -4 -1 -14 5 -22 7 -12 9 -10 9 8 0 23 -5 28 -14 14z"/>
<path d="M2226 3892 c-2 -4 -1 -14 5 -22 7 -12 9 -10 9 8 0 23 -5 28 -14 14z"/>
<path d="M2483 3704 c-21 -9 -34 -10 -38 -4 -4 6 -11 8 -16 4 -5 -3 -7 -10 -4
-15 9 -13 -46 -58 -72 -59 -12 0 -23 -6 -25 -12 -3 -8 -9 -4 -17 10 -14 27
-24 28 -51 5 -26 -22 -25 -39 1 -46 12 -3 18 -10 15 -15 -10 -16 -46 -1 -46
19 0 13 -7 19 -24 19 -22 0 -25 -4 -24 -41 0 -23 -4 -44 -9 -48 -5 -3 -12 -14
-16 -23 -5 -15 -11 -16 -32 -8 -24 9 -27 7 -41 -28 -8 -20 -21 -50 -28 -67
-14 -30 -30 -94 -41 -171 -4 -23 1 -84 9 -135 9 -52 17 -114 18 -138 2 -27 8
-46 17 -49 10 -3 12 3 7 24 -3 16 -10 89 -16 162 -16 206 12 285 124 344 58
31 98 35 116 13 7 -8 25 -15 41 -15 19 0 29 -5 29 -15 0 -8 2 -15 5 -15 9 0
85 84 85 94 0 4 9 6 19 3 18 -4 31 10 31 34 0 10 -43 12 -53 2 -12 -12 -62
-10 -74 3 -16 16 -5 47 13 40 8 -3 14 -1 14 4 0 5 25 9 55 9 30 0 59 2 65 6 6
3 13 0 16 -8 3 -8 14 -17 25 -20 14 -4 19 0 19 14 0 10 5 19 10 19 6 0 10 -5
10 -11 0 -6 9 -8 20 -4 12 4 20 2 20 -5 0 -7 -9 -14 -21 -17 -13 -4 -19 -12
-17 -27 3 -23 37 -35 48 -16 5 8 25 0 65 -26 46 -29 70 -37 112 -39 29 -2 64
-10 77 -18 29 -19 81 -148 72 -179 -3 -12 4 -42 16 -67 11 -26 29 -82 38 -126
15 -67 38 -157 57 -224 5 -20 11 -10 15 28 2 19 9 36 16 39 8 2 8 -6 1 -30
-13 -47 -11 -68 6 -68 11 0 15 11 14 43 -1 23 6 76 16 117 18 83 19 145 5 295
-15 143 -31 195 -83 262 -89 114 -123 143 -171 143 -18 0 -24 4 -20 14 4 11 0
13 -15 9 -12 -3 -21 -11 -21 -18 0 -19 -51 -29 -61 -13 -6 9 0 17 18 24 26 11
24 12 -27 16 -35 3 -67 -1 -87 -9 -17 -8 -37 -14 -45 -12 -28 3 -49 -1 -43
-11 3 -5 -1 -10 -9 -10 -16 0 -20 10 -17 43 3 21 -48 22 -96 1z m74 -30 c-3
-3 -12 -4 -19 -1 -8 3 -5 6 6 6 11 1 17 -2 13 -5z m192 -28 c11 -9 9 -12 -10
-16 -24 -6 -49 9 -49 30 0 13 36 4 59 -14z m131 -16 c0 -5 -5 -10 -11 -10 -5
0 -7 5 -4 10 3 6 8 10 11 10 2 0 4 -4 4 -10z m-170 -44 c0 -2 -7 -9 -15 -16
-12 -10 -15 -10 -15 4 0 9 7 16 15 16 8 0 15 -2 15 -4z"/>
<path d="M2330 3670 c0 -5 9 -10 20 -10 11 0 20 5 20 10 0 6 -9 10 -20 10 -11
0 -20 -4 -20 -10z"/>
<path d="M2540 3530 c0 -5 5 -10 10 -10 6 0 10 5 10 10 0 6 -4 10 -10 10 -5 0
-10 -4 -10 -10z"/>
<path d="M2674 3345 c-9 -23 10 -38 35 -30 24 7 20 19 -10 35 -15 9 -21 7 -25
-5z"/>
<path d="M2732 3305 c-18 -8 -35 -14 -37 -15 -16 -1 -2 -16 18 -18 23 -3 24
-6 19 -48 -4 -42 -4 -44 22 -44 16 0 26 5 26 15 0 8 5 15 12 15 8 0 7 6 -4 16
-11 12 -14 27 -11 55 6 43 3 45 -45 24z"/>
<path d="M2658 3193 c7 -3 16 -2 19 1 4 3 -2 6 -13 5 -11 0 -14 -3 -6 -6z"/>
<path d="M2689 3070 c-35 -9 -81 -24 -103 -33 -21 -9 -46 -17 -55 -17 -20 0
-61 -40 -61 -58 0 -7 7 -23 16 -36 14 -23 14 -25 -4 -30 -31 -10 -63 7 -91 50
l-27 39 -82 -1 c-59 0 -92 -6 -121 -20 -73 -35 -66 -64 17 -65 48 -1 53 -2 28
-9 -27 -8 -76 -46 -76 -59 0 -4 18 -25 41 -48 48 -50 84 -60 163 -43 54 11 58
14 79 58 20 42 26 47 59 49 33 3 38 0 44 -23 9 -34 52 -52 142 -60 92 -9 112
-2 175 54 30 26 62 52 72 58 10 5 15 15 12 22 -8 12 -75 45 -157 76 -8 3 17 4
55 2 39 -2 78 -7 88 -11 12 -5 17 -2 17 8 0 17 -50 63 -80 72 -11 3 -20 12
-20 20 0 20 -61 22 -131 5z"/>
<path d="M3200 2933 c0 -9 4 -30 10 -47 5 -17 12 -44 15 -60 8 -37 21 -20 30
37 5 27 2 45 -9 62 -19 29 -46 33 -46 8z"/>
<path d="M2050 2840 c0 -11 -3 -19 -7 -19 -5 1 -14 1 -22 0 -24 -2 4 -91 29
-91 4 0 7 29 7 65 0 36 -2 65 -4 65 -2 0 -3 -9 -3 -20z"/>
<path d="M3164 2807 c5 -26 1 -40 -14 -60 -20 -25 -27 -67 -11 -67 4 0 20 11
35 25 31 28 36 93 10 119 -23 23 -27 20 -20 -17z"/>
<path d="M2600 2698 c1 -18 25 -48 39 -48 17 0 13 25 -7 43 -22 20 -32 21 -32
5z"/>
<path d="M3080 2659 c0 -19 -4 -39 -8 -44 -5 -6 -5 -26 -2 -45 l6 -35 16 37
c12 26 14 46 8 73 -11 50 -20 56 -20 14z"/>
<path d="M2307 2613 c-4 -3 -7 -11 -7 -17 0 -6 5 -5 12 2 6 6 9 14 7 17 -3 3
-9 2 -12 -2z"/>
<path d="M2548 2596 c-16 -5 -28 -14 -28 -18 0 -21 -51 -27 -90 -12 -31 12
-44 14 -54 5 -28 -24 -109 -59 -122 -54 -27 10 -14 -32 14 -48 22 -12 28 -24
30 -54 3 -48 7 -52 28 -34 14 11 18 11 28 -2 33 -45 113 -65 217 -53 53 6 69
13 103 44 43 38 76 42 76 10 0 -31 -21 -67 -46 -81 -13 -6 -26 -20 -30 -31 -3
-10 -11 -18 -17 -18 -7 0 -19 -9 -26 -19 -14 -18 -16 -19 -37 -3 -13 9 -24 27
-24 40 0 19 -5 22 -45 22 -33 0 -45 -4 -45 -14 0 -8 5 -18 10 -21 14 -8 13
-25 -2 -25 -6 0 -19 -6 -27 -14 -25 -21 -71 -29 -71 -12 0 8 -7 17 -16 20 -8
3 -14 14 -13 23 4 22 -56 89 -65 74 -4 -6 -8 -30 -9 -52 -1 -30 -6 -43 -18
-46 -12 -3 -16 -15 -15 -43 0 -21 3 -34 7 -29 9 15 39 -1 39 -21 0 -11 5 -22
10 -25 8 -5 8 -11 1 -19 -8 -9 -1 -12 24 -12 34 0 35 1 35 37 0 25 5 39 16 43
9 4 18 5 20 4 2 -3 6 -131 5 -175 -1 -16 -7 -23 -21 -23 -17 0 -20 7 -20 40 0
38 -2 40 -31 40 -30 0 -31 0 -24 -41 7 -40 7 -40 -21 -37 -26 3 -29 7 -32 43
-2 22 -9 54 -17 72 -8 17 -15 39 -15 50 0 14 -2 15 -9 4 -17 -26 -11 -139 10
-209 28 -90 48 -122 76 -122 18 0 23 -6 23 -25 0 -24 47 -81 57 -71 3 2 10 26
17 53 11 43 15 48 41 48 28 0 30 -4 52 -75 13 -41 25 -87 26 -102 2 -15 19
-44 38 -65 19 -21 45 -55 58 -76 l23 -37 36 29 c21 16 59 52 87 80 l49 51 -57
0 -57 0 -1 38 c-1 20 -1 41 0 46 6 30 -12 46 -50 46 l-39 0 0 -45 c0 -43 1
-45 30 -45 23 0 30 -4 30 -20 0 -18 -7 -20 -55 -20 l-55 0 0 79 c0 43 -3 93
-6 110 -5 25 -4 30 8 26 8 -3 21 1 28 10 16 19 54 19 70 0 14 -17 55 -11 81
11 8 8 25 14 37 14 12 0 22 6 22 14 0 9 8 12 25 8 33 -6 40 -19 22 -40 -9 -9
-20 -29 -26 -45 -9 -22 -17 -27 -46 -27 -28 0 -35 -4 -35 -19 0 -15 8 -21 33
-23 20 -2 32 -8 32 -18 0 -10 -12 -16 -32 -18 -25 -2 -33 -8 -33 -23 0 -15 7
-19 35 -19 22 0 38 -6 41 -15 5 -11 11 -12 25 -4 16 8 19 21 19 95 l0 85 53
-6 c72 -9 76 -11 87 -41 9 -22 13 -24 25 -14 8 7 15 20 15 29 0 9 11 54 24
100 24 81 24 83 5 88 -15 4 -19 14 -19 49 0 50 -6 53 -38 20 -21 -23 -25 -23
-50 -10 -36 19 -42 18 -42 -6 0 -22 25 -28 33 -7 4 10 6 10 6 0 1 -7 10 -13
21 -13 13 0 20 -7 20 -20 0 -18 -7 -20 -59 -20 l-60 0 -3 108 c-2 72 1 111 9
120 19 20 28 14 9 -7 -17 -18 -16 -20 3 -26 11 -3 29 -2 38 4 10 6 15 11 10
11 -4 0 0 11 9 25 9 13 14 30 11 37 -4 8 -6 6 -6 -4 -1 -28 -21 -21 -21 7 0
27 -9 32 -28 13 -9 -9 -12 -9 -13 3 -1 7 -2 23 -3 33 -1 24 -20 31 -37 13 -8
-7 -24 -16 -36 -19 -19 -5 -21 -4 -10 14 10 16 9 21 -5 29 -10 6 -18 18 -18
27 0 9 -6 28 -13 42 -8 14 -17 40 -20 58 -13 62 -46 120 -79 138 -39 20 -93
24 -130 10z m-174 -92 c26 -10 -1 -34 -38 -34 l-31 0 25 20 c29 23 25 21 44
14z m136 -14 c-36 -11 -50 -11 -50 0 0 6 17 10 38 9 33 -1 34 -2 12 -9z m170
-35 c0 -35 -114 -76 -222 -79 l-78 -2 0 28 c0 15 -1 31 -2 34 -3 7 17 10 157
19 49 4 92 8 94 11 8 8 51 -1 51 -11z m198 -246 c-7 -4 -17 0 -24 9 -18 24 -7
34 16 15 14 -12 16 -19 8 -24z m-418 -28 c0 -12 -20 -25 -27 -18 -7 7 6 27 18
27 5 0 9 -4 9 -9z m100 -42 c0 -12 11 -24 28 -31 21 -9 23 -12 10 -15 -22 -5
-22 -18 -3 -74 19 -53 14 -74 -15 -59 -11 6 -20 17 -20 25 0 10 -11 15 -35 15
-25 0 -35 -4 -35 -15 0 -17 -24 -30 -38 -21 -6 4 -2 31 10 68 10 35 17 71 14
81 -2 9 0 17 4 17 5 0 11 8 14 18 9 26 66 18 66 -9z m157 -53 l17 -61 18 63
c17 58 21 62 48 62 l29 0 3 -91 c2 -68 0 -93 -10 -97 -20 -7 -24 2 -31 65 l-6
58 -18 -63 c-23 -84 -46 -83 -67 3 l-15 60 -5 -60 c-4 -52 -8 -60 -26 -63 -24
-3 -41 25 -24 42 5 5 10 40 10 76 0 37 2 69 5 72 3 3 17 3 30 0 20 -3 28 -15
42 -66z"/>
<path d="M2517 2073 c-16 -15 -6 -43 14 -43 15 0 19 4 15 16 -3 9 -6 20 -6 25
0 11 -14 12 -23 2z"/>
<path d="M2980 2495 c0 -8 5 -15 10 -15 6 0 10 7 10 15 0 8 -4 15 -10 15 -5 0
-10 -7 -10 -15z"/>
<path d="M2932 2339 c2 -7 10 -15 17 -17 8 -3 12 1 9 9 -2 7 -10 15 -17 17 -8
3 -12 -1 -9 -9z"/>
<path d="M3101 2203 c-1 -24 4 -43 9 -43 12 0 12 37 0 65 -7 15 -9 10 -9 -22z"/>
<path d="M2920 2100 c0 -13 7 -20 19 -20 14 0 18 5 14 20 -3 11 -12 20 -19 20
-8 0 -14 -9 -14 -20z"/>
<path d="M3091 2058 c0 -67 10 -59 24 20 6 35 4 42 -9 42 -13 0 -16 -12 -15
-62z"/>
<path d="M3231 2046 c-1 -21 -17 -86 -37 -143 -42 -121 -40 -156 4 -63 40 85
59 176 44 215 l-10 30 -1 -39z"/>
<path d="M2041 1950 c-6 -25 -18 -68 -26 -96 -19 -65 -26 -142 -14 -149 5 -4
9 16 9 44 0 28 4 51 8 51 11 0 46 163 39 182 -2 7 -9 -7 -16 -32z"/>
<path d="M2900 1720 l0 -52 33 21 c23 15 32 28 32 48 0 24 -4 28 -32 31 l-33
3 0 -51z"/>
<path d="M2436 1737 c-3 -14 -9 -32 -12 -41 -5 -12 0 -16 20 -16 24 0 26 3 20
28 -12 47 -21 57 -28 29z"/>
<path d="M3065 1736 c-3 -9 -7 -23 -10 -32 -6 -20 12 -8 25 16 7 13 7 21 0 25
-6 3 -12 -1 -15 -9z"/>
<path d="M2465 1640 c3 -5 8 -10 11 -10 2 0 4 5 4 10 0 6 -5 10 -11 10 -5 0
-7 -4 -4 -10z"/>
<path d="M3375 1360 c-3 -5 -1 -10 4 -10 6 0 11 5 11 10 0 6 -2 10 -4 10 -3 0
-8 -4 -11 -10z"/>
<path d="M2228 1223 c6 -2 18 -2 25 0 6 3 1 5 -13 5 -14 0 -19 -2 -12 -5z"/>
<path d="M2908 1223 c7 -3 16 -2 19 1 4 3 -2 6 -13 5 -11 0 -14 -3 -6 -6z"/>
<path d="M2534 1146 c-16 -13 -15 -15 15 -30 37 -20 46 -17 37 12 -9 27 -30
34 -52 18z"/>
<path d="M2529 1087 c16 -20 37 -22 47 -5 4 7 3 8 -4 4 -6 -4 -22 -1 -34 5
-21 11 -22 11 -9 -4z"/>
<path d="M2767 1148 c-25 -13 -22 -65 3 -73 29 -9 40 2 40 40 0 36 -16 48 -43
33z"/>
<path d="M2050 961 c0 -28 4 -41 14 -41 40 0 48 73 9 78 -21 3 -23 -1 -23 -37z"/>
<path d="M2381 984 c0 -11 3 -14 6 -6 3 7 2 16 -1 19 -3 4 -6 -2 -5 -13z"/>
<path d="M2585 990 c3 -5 8 -10 11 -10 2 0 4 5 4 10 0 6 -5 10 -11 10 -5 0 -7
-4 -4 -10z"/>
<path d="M2600 968 l-12 -33 -9 25 c-8 24 -8 24 -6 -5 2 -25 6 -30 27 -30 22
0 25 5 28 38 4 46 -12 48 -28 5z"/>
<path d="M2710 980 c0 -11 4 -20 9 -20 13 0 32 26 24 33 -13 14 -33 6 -33 -13z"/>
<path d="M2910 985 c0 -8 9 -15 20 -15 11 0 20 7 20 15 0 8 -9 15 -20 15 -11
0 -20 -7 -20 -15z"/>
<path d="M2510 980 c0 -5 5 -10 10 -10 6 0 10 5 10 10 0 6 -4 10 -10 10 -5 0
-10 -4 -10 -10z"/>
</g>
</svg>
